# AST/ASF file generated using VICON BodyLanguage
# -----------------------------------------------
:version 1.10
:name VICON
:units
  mass 1.0
  length 0.45
  angle deg
:documentation
   .ast/.asf automatically generated from VICON data using
   VICON BodyBuilder and BodyLanguage model FoxedUp or BRILLIANT.MOD
:root
   order TX TY TZ RX RY RZ
   axis XYZ
   position 0 0 0  
   orientation 0 0 0 
:bonedata
  begin
     id 1 
     name lhipjoint
     direction 0.734343 -0.627749 0.258209 
     length 2.5437 
     axis 0 0 0  XYZ
  end
  begin
     id 2 
     name lfemur
     direction 0.34202 -0.939693 0  
     length 6.7391  
     axis 0 0 20  XYZ
    dof rx ry rz
    limits (-160.0 20.0)
           (-70.0 70.0)
           (-60.0 70.0)
  end
  begin
     id 3 
     name ltibia
     direction 0.34202 -0.939693 0   
     length 7.21536   
     axis 0 0 20   XYZ
    dof rx
    limits (-10.0 170.0)
  end
  begin
     id 4 
     name lfoot
     direction 0.0489572 -0.134509 0.989702   
     length 1.61313   
     axis -90 7.62852e-016 20   XYZ
    dof rx rz
    limits (-45.0 90.0)
           (-70.0 20.0)
  end
  begin
     id 5 
     name ltoes
     direction 1.53451e-011 -4.21692e-011 1   
     length 0.823104   
     axis -90 7.62852e-016 20   XYZ
    dof rx
    limits (-90.0 20.0)
  end
  begin
     id 6 
     name rhipjoint
     direction -0.746398 -0.615468 0.253157   
     length 2.59446  
     axis 0 0 0  XYZ 
  end
  begin
     id 7 
     name rfemur
     direction -0.34202 -0.939693 0   
     length 6.7075   
     axis 0 0 -20   XYZ
    dof rx ry rz
    limits (-160.0 20.0)
           (-70.0 70.0)
           (-70.0 60.0)
  end
  begin
     id 8 
     name rtibia
     direction -0.34202 -0.939693 0   
     length 7.27262   
     axis 0 0 -20   XYZ
    dof rx
    limits (-10.0 170.0)
 end
 begin
     id 9 
     name rfoot
     direction -0.0455203 -0.125066 0.991104   
     length 1.91095  
     axis -90 -7.62852e-016 -20   XYZ
    dof rx rz
    limits (-45.0 90.0)
           (-20.0 70.0)
  end
  begin
     id 10 
     name rtoes
     direction -1.53601e-011 -4.21913e-011 1   
     length 0.969037   
     axis -90 -7.62852e-016 -20   XYZ
    dof rx
    limits (-90.0 20.0)
  end
  begin
     id 11 
     name lowerback
     direction 0.0181546 0.999122 -0.0377542   
     length 1.99916   
     axis 0 0 0   XYZ
    dof rx ry rz
    limits (-20.0 45.0)
           (-30.0 30.0)
           (-30.0 30.0)
  end
  begin
     id 12 
     name upperback
     direction 0.0203486 0.99589 0.0882534   
     length 1.951   
     axis 0 0 0   XYZ
    dof rx ry rz
    limits (-20.0 45.0)
           (-30.0 30.0)
           (-30.0 30.0)
  end
  begin
     id 13 
     name thorax
     direction 0.0131685 0.994241 0.106355   
     length 1.97461   
     axis 0 0 0   XYZ
    dof rx ry rz
    limits (-20.0 45.0)
           (-30.0 30.0)
           (-30.0 30.0)
  end
  begin
     id 14 
     name lowerneck
     direction -0.0281395 0.999325 0.023617   
     length 1.7959   
     axis 0 0 0   XYZ
    dof rx ry rz
    limits (-20.0 45.0)
           (-30.0 30.0)
           (-30.0 30.0)
  end
  begin
     id 15 
     name upperneck
     direction 0.0288721 0.991984 -0.123019   
     length 1.79917   
     axis 0 0 0   XYZ
    dof rx ry rz
    limits (-20.0 45.0)
           (-30.0 30.0)
           (-30.0 30.0)
  end
  begin
     id 16
     name head
     direction 0.0133797 0.998944 -0.0439492  
     length 1.80902  
     axis 0 0 0   XYZ
    dof rx ry rz
    limits (-20.0 45.0)
           (-30.0 30.0)
           (-30.0 30.0)
  end
  begin
     id 17 
     name lclavicle
     direction 0.919195 0.377107 0.113449  
     length 3.17815  
     axis 0 0 0   XYZ
    dof ry rz
    limits (-20.0 10.0)
           (0.0 20.0)
  end
  begin
     id 18 
     name lhumerus
     direction 1 -4.48959e-011 2.13129e-027   
     length 4.84137   
     axis 180 -30 -90   XYZ
    dof rx ry rz
    limits (-60.0 90.0)
           (-90.0 90.0)
           (-90.0 90.0)
  end
  begin
     id 19
     name lradius
     direction 1 -4.48957e-011 -6.30627e-028   
     length 3.2452   
     axis 180 -30 -90   XYZ
    dof rx
    limits (-10.0 170.0)
  end
  begin
     id 20
     name lwrist
     direction 1 -4.4901e-011 9.13299e-027   
     length 1.6226   
     axis -6.84618e-015 90 90   XYZ
    dof ry
    limits (-180.0 0.0)
 end
  begin
     id 21 
     name lhand
     direction 1 -4.48816e-011 1.82293e-026   
     length 0.521221   
     axis -1.16502e-014 90 90   XYZ
    dof rx rz
    limits (-90.0 90.0)
           (-45.0 45.0)
  end
  begin
     id 22 
     name lfingers
     direction 1 -4.49108e-011 3.65687e-026   
     length 0.420221   
     axis -2.33008e-014 90 90   XYZ
    dof rx
    limits (0.0 90.0)
  end
  begin
     id 23
     name lthumb
     direction 0.707107 -6.34943e-011 0.707107   
     length 0.603356   
     axis -90 45 5.69224e-014   XYZ
    dof rx rz
    limits (-45.0 45.0)
           (-45.0 45.0)
  end
  begin
     id 24 
     name rclavicle
     direction -0.90847 0.38596 0.160368   
     length 3.12973  
     axis 0 0 0   XYZ 
    dof ry rz
    limits (-10.0 20.0)
           (-20.0 0.0)
  end
  begin
     id 25 
     name rhumerus
     direction -1 -4.48974e-011 4.47268e-028  
     length 4.72284   
     axis 180 30 90   XYZ
    dof rx ry rz
    limits (-90.0 60.0)
           (-90.0 90.0)
           (-90.0 90.0)
  end
  begin
     id 26 
     name rradius
     direction -1 -4.48969e-011 3.43203e-027   
     length 3.23459   
     axis 180 30 90   XYZ
    dof rx
    limits (-10.0 170.0)
  end
  begin
     id 27 
     name rwrist
     direction -1 -4.48969e-011 9.12911e-027   
     length 1.6173   
     axis -6.84618e-015 -90 -90   XYZ
    dof ry
    limits (-180.0 0.0)
  end
  begin
     id 28
     name rhand
     direction -1 -4.49194e-011 1.83006e-026   
     length 0.307416   
     axis -1.16502e-014 -90 -90   XYZ
    dof rx rz
    limits (-90.0 90.0)
           (-45.0 45.0)
  end
  begin
     id 29
     name rfingers
     direction -1 -4.48423e-011 3.63103e-026   
     length 0.247847   
     axis -2.33008e-014 -90 -90   XYZ
    dof rx
    limits (0.0 90.0)
  end
  begin
     id 30
     name rthumb
     direction -0.707107 -6.34802e-011 0.707107   
     length 0.35586   
     axis -90 -45 -5.69224e-014   XYZ
    dof rx rz
    limits (-45.0 45.0)
           (-45.0 45.0)
  end
:hierarchy
  begin
    root lhipjoint rhipjoint lowerback
    lhipjoint lfemur
    lfemur ltibia
    ltibia lfoot
    lfoot ltoes
    rhipjoint rfemur
    rfemur rtibia
    rtibia rfoot
    rfoot rtoes
    lowerback upperback
    upperback thorax
    thorax lowerneck lclavicle rclavicle
    lowerneck upperneck
    upperneck head
    lclavicle lhumerus
    lhumerus lradius
    lradius lwrist
    lwrist lhand lthumb
    lhand lfingers
    rclavicle rhumerus
    rhumerus rradius
    rradius rwrist
    rwrist rhand rthumb
    rhand rfingers
  end

#!OML:ASF H:\Terrain\Patient Classification 1\Animal1\Tuesday\Animal1.ASF
:FULLY-SPECIFIED
:DEGREES
1547
root 27.1706 16.6672 0.129815 23.1622 6.04884 -1.81246
lowerback 13.2589 0.589738 -0.480077
upperback 6.05669 0.726605 -0.153784
thorax -1.08032 0.359913 0.00986862
lowerneck 7.01172 8.13788 -3.12458
upperneck -14.1253 11.6609 5.42703
head -5.93171 5.51489 1.32562
rclavicle 3.3197e-014 -5.76476e-015
rhumerus -43.888 -2.64228 -56.9129
rradius 104.748
rwrist 1.61519
rhand -7.43251 11.9933
rfingers 7.12502
rthumb 18.4548 -17.1513
lclavicle 3.3197e-014 -5.76476e-015
lhumerus -24.5516 5.43319 18.6765
lradius 101.499
lwrist -56.1752
lhand 6.76692 52.2343
lfingers 7.12502
lthumb 32.0538 79.4295
rfemur -25.9684 21.9575 4.27593
rtibia 17.5241
rfoot -12.5242 -39.1918
rtoes 11.8014
lfemur -46.8029 -9.98846 -3.33881
ltibia 30.0674
lfoot -10.1103 2.08524
ltoes -21.6047
1548
root 27.1725 16.6643 0.131575 23.2133 5.8219 -1.62751
lowerback 13.2416 0.580733 -0.638447
upperback 6.07402 0.696715 -0.129909
thorax -1.05484 0.341868 0.128318
lowerneck 7.22083 7.93642 -3.22235
upperneck -14.1128 11.3734 5.5001
head -5.96042 5.36881 1.37878
rclavicle -7.45443e-015 3.57812e-015
rhumerus -44.0469 -2.63866 -56.8826
rradius 104.831
rwrist 2.18565
rhand -8.57123 12.1167
rfingers 7.12502
rthumb 17.3591 -17.1281
lclavicle -7.45443e-015 3.57812e-015
lhumerus -27.3247 4.2842 19.8728
lradius 102.271
lwrist -55.8543
lhand 5.93678 51.9216
lfingers 7.12502
lthumb 31.2631 79.2726
rfemur -26.1004 21.9881 3.93237
rtibia 17.5366
rfoot -13.9359 -38.889
rtoes 13.19
lfemur -46.8199 -10.0127 -3.5539
ltibia 30.1719
lfoot -10.1511 2.20108
ltoes -21.4303
1549
root 27.1721 16.6641 0.130572 23.3331 5.77754 -1.60132
lowerback 13.0353 0.684794 -0.525848
upperback 6.16586 0.847287 -0.154225
thorax -0.847227 0.418336 0.022034
lowerneck 7.57745 7.57195 -2.59748
upperneck -14.3923 10.9154 5.19491
head -6.0367 5.12169 1.20831
rclavicle 8.15017e-015 2.78299e-015
rhumerus -44.3032 -3.07481 -56.8829
rradius 104.86
rwrist 2.58881
rhand -8.41484 12.0656
rfingers 7.12502
rthumb 17.5096 -17.1659
lclavicle 8.15017e-015 2.78299e-015
lhumerus -28.9788 3.06622 20.9553
lradius 102.673
lwrist -55.193
lhand 5.30438 51.9987
lfingers 7.12502
lthumb 30.6602 79.4644
rfemur -26.3043 21.9534 3.83697
rtibia 17.5945
rfoot -14.2298 -38.9076
rtoes 13.6487
lfemur -46.947 -9.98978 -3.53813
ltibia 30.2127
lfoot -10.152 2.0486
ltoes -20.1534
1550
root 27.1715 16.6674 0.129104 23.3846 5.71945 -1.54621
lowerback 12.8653 0.67689 -0.615992
upperback 6.36636 0.831003 -0.0748689
thorax -0.548438 0.406668 0.160875
lowerneck 7.52642 7.39522 -2.56004
upperneck -14.5439 10.6895 5.19817
head -6.06451 5.00799 1.22227
rclavicle 7.15625e-015 -7.7526e-015
rhumerus -44.0292 -3.1673 -56.8081
rradius 104.8
rwrist 2.57879
rhand -6.9139 12.1969
rfingers 7.12502
rthumb 18.9536 -16.8996
lclavicle 7.15625e-015 -7.7526e-015
lhumerus -30.9666 2.35789 21.9935
lradius 103.24
lwrist -54.4654
lhand 4.86504 52.191
lfingers 7.12502
lthumb 30.2412 79.7343
rfemur -26.4691 21.9945 3.73044
rtibia 17.7584
rfoot -14.1834 -39.0562
rtoes 13.6859
lfemur -46.945 -9.96025 -3.59643
ltibia 30.1743
lfoot -10.1584 1.92643
ltoes -18.4967
1551
root 27.1734 16.6658 0.128127 23.2259 5.54032 -1.42836
lowerback 13.091 0.487196 -0.905284
upperback 6.59418 0.554193 0.148403
thorax -0.432867 0.258842 0.591118
lowerneck 7.00794 7.45106 -3.51409
upperneck -14.3847 10.6838 5.45958
head -5.99058 5.05137 1.47471
rclavicle -1.81888e-014 8.64713e-015
rhumerus -43.2748 -2.52336 -56.5911
rradius 104.675
rwrist 2.3714
rhand -6.33451 12.5727
rfingers 7.12502
rthumb 19.5108 -16.4684
lclavicle -1.81888e-014 8.64713e-015
lhumerus -33.8065 2.23929 23.0362
lradius 104.272
lwrist -53.7958
lhand 4.6789 52.505
lfingers 7.12502
lthumb 30.0637 80.0807
rfemur -26.4788 22.147 3.55412
rtibia 17.9642
rfoot -14.7812 -38.9806
rtoes 14.4696
lfemur -46.6835 -9.95124 -3.83784
ltibia 30.1024
lfoot -10.0924 2.11366
ltoes -19.4363
